<svg viewBox="0 0 1024 1024" xmlns="http://www.w3.org/2000/svg" width="120" height="120"><path d="M73.31 456.145H230.4c108.567 0 184.227-40.68 229.4-97.14l2.327-2.793c10.472-11.752 18.571-26.065 26.95-47.01 21.922-54.854 97.815-59.346 126.114-7.518 19.317 35.445 32.792 76.568 38.354 121.158 9.146 82.386-15.686 161.56-70.82 228.306-91.508 113.85-214.83 182.155-351.72 203.054 76.242 62.557 174.01 99.98 280.995 99.98 245.364 0 442.182-196.818 442.182-442.182 0-244.527-198.284-442.182-442.182-442.182-225.024 0-411.23 168.262-438.69 386.327zM0 512C0 228.073 230.4 0 512 0s512 228.073 512 512-228.073 512-512 512S0 795.927 0 512zm71.168 13.964a440.623 440.623 0 0 0 96.954 264.564c130.56-6.865 262.54-61.626 360.169-183.11 44.218-53.527 62.836-114.036 55.854-176.873-4.654-37.236-16.29-69.818-30.254-95.418-9.31 23.273-20.946 46.546-39.564 67.491-37.236 46.546-125.672 123.346-283.927 123.346H71.168z" fill="orange"/></svg>