<?xml version="1.0" standalone="no"?><!DOCTYPE svg PUBLIC "-//W3C//DTD SVG 1.1//EN" "http://www.w3.org/Graphics/SVG/1.1/DTD/svg11.dtd"><svg t="1513391655034" class="icon" style="" viewBox="0 0 1024 1024" version="1.1" xmlns="http://www.w3.org/2000/svg" p-id="5027" xmlns:xlink="http://www.w3.org/1999/xlink" width="128" height="128"><defs><style type="text/css"></style></defs><path d="M587.9808 671.2064s-75.96032 60.79488-103.59808 76.7232a342.5792 342.5792 0 0 1-67.39456 29.76256c-20.33152 6.4512-38.144 10.51136-53.43744 12.19072s-27.95008 2.7392-37.99552 3.23072c-0.95232 0.4608-2.15552 0.7168-3.584 0.7168h-11.47392c-26.2912 0-51.02592-3.10272-74.20928-9.33376-23.19872-6.21056-43.38688-15.42144-60.5952-27.60704a134.36928 134.36928 0 0 1-40.86784-45.89568c-10.02496-18.41152-15.04768-39.80288-15.04768-64.17408 0.47616-21.02272 6.21056-40.15616 17.18784-57.36448 11.01312-17.20832 25.23136-31.79008 42.6752-43.7504 17.44896-11.97056 36.8128-21.02784 58.09664-27.25888 21.26848-6.21056 42.65984-8.82688 64.1792-7.87456 21.02784 0.95232 41.344 3.456 60.94336 7.51104a554.752 554.752 0 0 1 56.28928 14.70464c17.92 5.73952 34.8928 11.95008 50.9184 18.65728a4071.08608 4071.08608 0 0 1 45.52704 19.36384c5.7344 2.39104 11.70944 4.79232 17.92 7.17824s12.66176 4.79232 19.36384 7.17824c13.87008-17.68448 25.55904-35.00544 35.12832-51.9936 9.55392-16.96768 17.44896-32.49664 23.65952-46.60736 6.23104-14.10048 11.01312-25.92256 14.3616-35.49696 3.33824-9.55392 5.4784-16.24064 6.4512-20.07552H321.23904v-34.42176h147.01056V316.99456H263.87456V282.5728h204.37504V218.03008c0-4.29568 2.37568-7.76704 7.16288-10.3936 4.7872-2.63168 10.28608-4.42368 16.49664-5.37088 7.17824-1.44384 15.29344-2.15552 24.3712-2.15552h55.20896V282.5728h210.08896v34.42176h-210.08896v79.57504h166.95296c0.04096-0.23552 0.0768-0.47616 0.10752-0.71168v0.71168h-0.10752c-3.3792 21.2992-9.0624 43.77088-17.09568 67.40992-6.68672 20.5568-16.60416 43.97568-29.76256 70.26688-13.14816 26.28608-30.46912 53.30432-51.98848 81.03936 0 0 164.57216 78.72512 338.28352 106.43456 28.84608-63.97952 44.92288-134.9888 44.92288-209.73056 0-282.0864-228.7104-510.77632-510.80192-510.77632C229.89312 1.21344 1.2032 229.90336 1.2032 511.98976c0 282.09152 228.68992 510.80192 510.7968 510.80192 174.98112 0 329.40544-88.00256 421.45792-222.15168-93.52704-20.38784-192.896-61.66016-345.47712-129.4336z m-401.55136-22.94784c-1.92 87.64928 97.24416 94.16192 112.5376 94.62784 50.54976 1.55648 91.36128-17.54112 123.13088-36.40832 31.78496-18.88768 83.6352-67.65056 85.57056-69.32992 1.89952-1.67936 3.81952-3.45088 5.71904-5.37088a837.94944 837.94944 0 0 0-40.86784-21.16096c-13.37344-6.44608-81.38752-42.98752-141.73184-49.20832-114.26816-11.85792-143.77472 60.19584-144.3584 86.85056z" fill="#1296db" p-id="5028"></path></svg>