<?xml version="1.0" standalone="no"?><!DOCTYPE svg PUBLIC "-//W3C//DTD SVG 1.1//EN" "http://www.w3.org/Graphics/SVG/1.1/DTD/svg11.dtd"><svg t="1513392696181" class="icon" style="" viewBox="0 0 1024 1024" version="1.1" xmlns="http://www.w3.org/2000/svg" p-id="2993" xmlns:xlink="http://www.w3.org/1999/xlink" width="128" height="128"><defs><style type="text/css"></style></defs><path d="M169.456716 533.428856c110.073632-23.657711 95.076617-155.160199 91.797015-183.912438-5.412935-44.354229-57.536318-121.791045-128.318408-115.677612-89.090547 7.99204-102.081592 136.660697-102.081592 136.660697-12.067662 59.478607 28.81592 186.555224 138.602985 162.929353zM286.312438 762.173134c-3.247761 9.265672-10.41194 32.891542-4.202985 53.492537 12.290547 46.200995 52.40995 48.270647 52.40995 48.270647l57.631841 0 0-140.895522-61.707463 0c-27.733333 8.310448-41.106468 29.866667-44.131343 39.132338zM373.747264 312.835821c60.78408 0 109.914428-69.954229 109.914428-156.465672 0-86.41592-49.130348-156.370149-109.914428-156.370149-60.688557 0-109.946269 69.922388-109.946269 156.370149 0 86.511443 49.257711 156.465672 109.946269 156.465672zM635.542289 323.18408c81.257711 10.539303 133.476617-76.163184 143.856716-141.882587 10.602985-65.623881-41.838806-141.882587-99.343284-154.969154-57.631841-13.21393-129.59204 79.092537-136.151244 139.303483-7.800995 73.58408 10.539303 147.104478 91.637811 157.548259zM834.610945 709.508458c0 0-125.707463-97.241791-199.068657-202.3801-99.470647-155.000995-240.7801-91.924378-288.063682-13.118408-47.060697 78.80597-120.421891 128.668657-130.833831 141.850746-10.571144 13.022886-151.848756 89.249751-120.485572 228.585075 31.363184 139.20796 141.500498 136.533333 141.500498 136.533333s81.162189 7.99204 175.347264-13.118408c94.216915-20.887562 175.315423 5.221891 175.315423 5.221891s220.051741 73.679602 280.294527-68.171144c60.147264-141.850746-34.037811-215.466667-34.037811-215.466667zM458.093532 920.612935l-143.060697 0c-61.771144-12.322388-86.38408-54.479602-89.504478-61.675622-3.056716-7.291542-20.569154-41.170149-11.303483-98.833831 26.682587-86.41592 102.845771-92.593035 102.845771-92.593035l76.131343 0 0-93.61194 64.859701 0.987065 0 345.695522zM724.537313 919.625871l-164.616915 0c-63.777114-16.429851-66.770149-61.739303-66.770149-61.739303l0-182.097512 66.770149-1.082587 0 163.629851c4.075622 17.448756 25.727363 20.600995 25.727363 20.600995l67.820896 0 0-183.148259 71.068657 0 0 243.836816zM957.61194 433.512438c0-31.458706-26.141294-126.121393-123.000995-126.121393-97.018905 0-110.00995 89.345274-110.00995 152.517413 0 60.274627 5.094527 144.429851 125.61194 141.755224 120.549254-2.674627 107.367164-136.533333 107.367164-168.151244z" p-id="2994" fill="#1296db"></path></svg>