<?xml version="1.0" standalone="no"?><!DOCTYPE svg PUBLIC "-//W3C//DTD SVG 1.1//EN" "http://www.w3.org/Graphics/SVG/1.1/DTD/svg11.dtd"><svg t="1513391927638" class="icon" style="" viewBox="0 0 1024 1024" version="1.1" xmlns="http://www.w3.org/2000/svg" p-id="15788" xmlns:xlink="http://www.w3.org/1999/xlink" width="128" height="128"><defs><style type="text/css"></style></defs><path d="M72 284.8c27.2-56 65.6-104.8 111.2-146.4 57.6-52 124-89.6 198.4-111.2C452.8 6.4 524.8 2.4 597.6 13.6 692.8 27.2 775.2 65.6 847.2 128c0.8 0.8 1.6 1.6 3.2 2.4 9.6 8.8 9.6 8.8 0 18.4-42.4 41.6-84 84-125.6 126.4-4.8 4.8-7.2 5.6-13.6 0.8-46.4-41.6-100.8-64-162.4-69.6C411.2 192.8 285.6 280 240 404c-0.8 2.4-2.4 5.6-4 8-4.8 1.6-7.2-1.6-10.4-4-36-28-72.8-56-108.8-84.8-12.8-10.4-25.6-20-38.4-30.4-3.2-1.6-7.2-3.2-6.4-8z" fill="#E94335" p-id="15789"></path><path d="M236 611.2c13.6 36 30.4 68.8 55.2 98.4 54.4 64 123.2 103.2 208 109.6 71.2 5.6 137.6-8.8 197.6-48.8 0.8 0 1.6 0 1.6-0.8 14.4 8.8 26.4 20.8 40.8 31.2 22.4 16 44 34.4 65.6 51.2 15.2 12 31.2 22.4 46.4 34.4 4 3.2 4 6.4 2.4 10.4-32.8 31.2-70.4 55.2-111.2 73.6-82.4 37.6-169.6 51.2-259.2 44-116-8.8-216.8-53.6-303.2-132-44.8-40.8-80-88.8-108-142.4 0 0 0-1.6-0.8-2.4 0.8-2.4 1.6-4.8 4-6.4 20-14.4 39.2-30.4 58.4-45.6 20.8-16 42.4-32 63.2-48.8 11.2-8.8 21.6-18.4 33.6-25.6 2.4-0.8 4-2.4 5.6 0z" fill="#35A754" p-id="15790"></path><path d="M853.6 896c-1.6-11.2-12-15.2-19.2-19.2-15.2-8.8-26.4-21.6-40.8-31.2-22.4-15.2-43.2-33.6-64.8-50.4-10.4-8-23.2-14.4-30.4-26.4 30.4-22.4 56-48.8 73.6-82.4 8.8-16.8 15.2-34.4 20.8-52 2.4-8.8 0-10.4-8-10.4H536c-14.4 0-14.4 0-14.4-13.6V438.4c0-8 2.4-10.4 10.4-10.4h457.6c6.4 0 9.6 0.8 10.4 8.8 8 58.4 8 116 0 173.6-9.6 68.8-32 133.6-68.8 192.8-20.8 35.2-46.4 66.4-77.6 92.8z" fill="#4284F4" p-id="15791"></path><path d="M236 611.2c-15.2 9.6-28.8 22.4-43.2 33.6-25.6 19.2-50.4 39.2-76 58.4-15.2 12-30.4 23.2-44.8 35.2-19.2-34.4-31.2-70.4-40-107.2-13.6-54.4-16-110.4-12-165.6 2.4-31.2 8.8-62.4 17.6-92.8s20.8-59.2 34.4-88c22.4 17.6 44.8 36 68 53.6 29.6 23.2 60 46.4 89.6 69.6 2.4 1.6 4 3.2 6.4 4-3.2 12-6.4 24.8-8.8 36.8-8.8 34.4-8.8 69.6-4 105.6 2.4 19.2 7.2 37.6 12.8 56.8z" fill="#FABB04" p-id="15792"></path></svg>