<?xml version="1.0" standalone="no"?><!DOCTYPE svg PUBLIC "-//W3C//DTD SVG 1.1//EN" "http://www.w3.org/Graphics/SVG/1.1/DTD/svg11.dtd"><svg t="1531118397049" class="icon" style="" viewBox="0 0 1024 1024" version="1.1" xmlns="http://www.w3.org/2000/svg" p-id="2069" xmlns:xlink="http://www.w3.org/1999/xlink" width="128" height="128"><defs><style type="text/css"></style></defs><path d="M0 512a512 512 0 1 0 1024 0A512 512 0 1 0 0 512z" fill="#2995CC" p-id="2070"></path><path d="M464 493.032V259.064c-80 12.648-145.072 25.248-224 37.888v198.912c78.928-0.92 144-1.904 224-2.832z m32-0.464c80-0.96 177.072-1.872 256-2.84V215.04c-78.928 12.648-176 25.24-256 37.896v239.632z m3.2 38.872c-0.032 79.872 0 159.752 0 239.632C578.12 783.72 673.056 796.32 752 808.96V534.272c-78.928-0.936-173.856-1.888-252.8-2.832z m-35.2-0.472c-80-0.952-145.072-1.888-224-2.84V727.04c78.928 12.656 144 25.24 224 37.888v-233.96z" fill="#F5F5F5" p-id="2071"></path></svg>