<?xml version="1.0" standalone="no"?><!DOCTYPE svg PUBLIC "-//W3C//DTD SVG 1.1//EN" "http://www.w3.org/Graphics/SVG/1.1/DTD/svg11.dtd"><svg t="1513391421246" class="icon" style="" viewBox="0 0 1024 1024" version="1.1" xmlns="http://www.w3.org/2000/svg" p-id="1872" xmlns:xlink="http://www.w3.org/1999/xlink" width="128" height="128"><defs><style type="text/css"></style></defs><path d="M512 0C229.227789 0 0 229.227789 0 512c0 282.745263 229.227789 512 512 512s512-229.254737 512-512C1024 229.227789 794.772211 0 512 0L512 0zM738.856421 637.062737c0 0-16.208842 44.220632-45.945263 83.941053 0 0 53.126737 18.054737 48.64 64.983579 0 0 1.778526 52.345263-113.461895 48.734316 0 0-81.071158-6.319158-105.377684-40.609684l-21.423158 0c-24.306526 34.304-105.350737 40.609684-105.350737 40.609684-115.280842 3.610947-113.475368-48.734316-113.475368-48.734316-4.500211-46.928842 48.626526-64.983579 48.626526-64.983579-29.709474-39.720421-45.918316-83.941053-45.918316-83.941053-72.057263 116.439579-64.848842-16.249263-64.848842-16.249263 13.527579-78.524632 70.238316-129.967158 70.238316-129.967158-8.111158-71.316211 21.611789-83.941053 21.611789-83.941053C318.410105 186.287158 508.025263 190.140632 512 190.248421c3.988211-0.107789 193.576421-3.961263 199.828211 216.643368 0 0 29.709474 12.638316 21.611789 83.941053 0 0 56.737684 51.442526 70.238316 129.967158l0 0C803.678316 620.813474 810.873263 753.502316 738.856421 637.062737L738.856421 637.062737zM738.856421 637.062737" fill="#1296db" p-id="1873"></path></svg>