<?xml version="1.0" standalone="no"?><!DOCTYPE svg PUBLIC "-//W3C//DTD SVG 1.1//EN" "http://www.w3.org/Graphics/SVG/1.1/DTD/svg11.dtd"><svg t="1514532594733" class="icon" style="" viewBox="0 0 1025 1024" version="1.1" xmlns="http://www.w3.org/2000/svg" p-id="1005" xmlns:xlink="http://www.w3.org/1999/xlink" width="200.1953125" height="200"><defs><style type="text/css"></style></defs><path d="M512.783048 2.043912c-282.204591 0-510.978044 228.773453-510.978044 510.978044s228.773453 510.978044 510.978044 510.978044 510.978044-228.773453 510.978044-510.978044-228.773453-510.978044-510.978044-510.978044zM254.981651 267.607784c35.913174 0 65.030938 26.025948 65.030938 58.110779 0 32.110778-29.116766 58.106786-65.030938 58.106786-35.896208 0-65.012974-25.996008-65.012974-58.106786 0-32.08483 29.116766-58.110778 65.012974-58.110779z m54.334331 349.249501c-17.215569 53.060878-12.898204 33.341317-81.053892 180.929142l-98.797405-61.385229S239.550513 636.551896 262.255104 590.917166c23.914172-48.108782-26.443114-73.853293-26.443114-73.853294l-75.679641-46.929141 40.844312-62.829342c57.186627 42.236527 61.355289 45.796407 99.841317 84.255489 29.814371 29.794411 26.087824 71.110778 8.498004 125.296407z m536.662675 68.781438c-19.195609 180.05988-254.194611 113.151697-254.194611 113.151696l12.800399-51.49002 54.338323 11.662675c100.735529 6.366267 90.834331-81.271457 90.834332-81.271457v-254.94012c0.88523-96.642715-91.290419-106.798403-256.600799-47.810379l38.477046 10.385229c-3.330339 11.339321-15.857285 29.04491-31.774451 48.321358h221.219561v44.608782H596.583447v55.756487h123.98004v44.616767H596.583447v93.521956c18.505988-6.148703 35.866267-14.51996 50.957086-25.620759l-10.986028-40.818363 58.557884-18.113773 48.649701 119.002994-72.03493 29.768463-12.778443-47.444111c-32.106786 24.637725-99.027944 60.154691-215.841318 57-124.713573 3.197605-92.730539-140.212575-92.730539-140.212575l3.214571-1.596807h87.594811c-0.548902 18.382236-8.149701 48.487026 2.248503 64.821358 8.537924 13.4002 30.386228 15.720559 44.429141 16.436127 1.587824 0.102794 3.202595 0.11477 4.803393 0.178643V578.631737h-127.165668v-44.616767h127.165668V478.258483H460.058497c-28.593812 30.258483-54.734531 55.245509-54.734531 55.245509l-38.379241-33.448104c27.218563-28.571856 54.525948-73.845309 71.324351-104.090818-13.664671 5.565868-27.729541 11.513972-42.215569 17.833333-14.290419 17.858283-30.521956 36.283433-48.789421 54.389222 0.745509 1.068862-62.645709-35.381238-62.645709-35.381238 65.536926-55.764471 102.306387-175.261477 102.306387-175.261477l91.124751 25.476048s-7.545908 17.628743-23.159681 44.684631c365.063872-103.033932 386.295409 63.156687 386.29541 63.156686s23.998004 114.724551 4.793413 294.776448z" fill="#ff440b" p-id="1006"></path></svg>