<?xml version="1.0" standalone="no"?><!DOCTYPE svg PUBLIC "-//W3C//DTD SVG 1.1//EN" "http://www.w3.org/Graphics/SVG/1.1/DTD/svg11.dtd"><svg t="1569548643708" class="icon" viewBox="0 0 1024 1024" version="1.1" xmlns="http://www.w3.org/2000/svg" p-id="3372" xmlns:xlink="http://www.w3.org/1999/xlink" width="200" height="200"><defs><style type="text/css"></style></defs><path d="M579.267 511.317c-11.678 0-23.357 10.825-23.357 24.162 0 10.85 11.679 21.699 23.357 21.699 17.506 0 29.989-10.85 29.989-21.7 0-13.336-12.483-24.16-29.989-24.16zM502.54 398.75c18.359 0 30.038-11.654 30.038-29.184 0-18.334-11.703-29.184-30.038-29.184-17.505 0-34.182 10.85-34.182 29.184 0 17.53 16.677 29.184 34.182 29.184zM511.756 0C229.108 0 0 229.108 0 511.732s229.108 511.707 511.732 511.707 511.707-229.108 511.707-511.683C1023.44 229.108 794.356 0 511.756 0z m-96.719 641.365c-30.842 0-53.37-4.998-82.554-13.336l-84.187 42.52 24.186-71.68c-59.222-41.691-94.233-94.232-94.233-158.427 0-113.372 106.716-200.095 236.788-200.095 115.078 0 217.6 68.365 237.617 165.06a115.81 115.81 0 0 0-22.504-2.487c-113.371 0-200.923 85.04-200.923 187.587 0 17.505 2.487 33.353 6.656 50.03-6.68 0.828-14.166 0.828-20.846 0.828z m347.672 81.7l16.677 60.051-63.39-35.84c-24.138 4.974-47.495 12.483-71.68 12.483-111.714 0-200.095-76.702-200.095-171.74 0-95.06 88.38-171.763 200.094-171.763 105.887 0 200.924 76.702 200.924 171.764 0 53.345-35.84 100.864-82.53 135.07zM337.506 340.383c-17.506 0-35.84 10.85-35.84 29.184 0 17.53 18.334 29.184 35.84 29.184 16.676 0 29.988-11.654 29.988-29.184 0-18.334-13.312-29.184-29.988-29.184z m372.687 170.911c-12.508 0-23.357 10.85-23.357 24.186 0 10.85 10.85 21.699 23.357 21.699 16.652 0 29.16-10.85 29.16-21.7 0-13.336-12.508-24.16-29.16-24.16z" fill="#58BC47" p-id="3373"></path></svg>