<?xml version="1.0" standalone="no"?><!DOCTYPE svg PUBLIC "-//W3C//DTD SVG 1.1//EN" "http://www.w3.org/Graphics/SVG/1.1/DTD/svg11.dtd"><svg t="1513688802062" class="icon" style="" viewBox="0 0 1024 1024" version="1.1" xmlns="http://www.w3.org/2000/svg" p-id="10123" xmlns:xlink="http://www.w3.org/1999/xlink" width="128" height="128"><defs><style type="text/css"></style></defs><path d="M900.9 343.5c-8.2 3.6-17.6-0.1-21.5-8.2-5.3-11-11.2-21.8-17.4-32.2-41-68.3-102.3-124.4-173.7-159.1-8-3.9-11.7-13.2-8.1-21.4 3.7-8.5 13.8-12.4 22.1-8.4 78.2 37.8 142.9 97 187.9 172 6.9 11.5 13.3 23.3 19.1 35.4 4 8.2 0 18.2-8.4 21.9z m35.9 154.6c-9.1 0-16.5 7.4-16.5 16.5 0 227.1-184.7 411.8-411.8 411.8S96.7 741.6 96.7 514.5s184.7-411.8 411.8-411.8c9.1 0 16.5-7.4 16.5-16.5s-7.4-16.5-16.5-16.5c-245.2 0-444.8 199.5-444.8 444.8s199.5 444.8 444.8 444.8 444.8-199.5 444.8-444.8c0-9.1-7.4-16.4-16.5-16.4z m-346-395.4a16.5 16.5 0 1 0 33 0 16.5 16.5 0 1 0-33 0z m313 313a16.5 16.5 0 1 0 33 0 16.5 16.5 0 1 0-33 0z" p-id="10124" fill="#009a61"></path><path d="M363.1 631.6c8.3-3.6 18.1-1.3 23.7 5.1 20.4 23.5 61.6 45.1 126.1 45.1s105.7-21.6 126.1-45.1c5.6-6.4 15.4-8.7 23.7-5.1 10.4 4.5 13.9 16.2 7 24.3-20.4 23.7-65.9 58.8-156.8 58.8s-136.4-35.1-156.8-58.8c-7-8.1-3.4-19.8 7-24.3z m89.7-182.2c-4.9 3.6-10.7 1.3-14-5.1-12-23.5-36.3-45.1-74.3-45.1s-62.3 21.6-74.3 45.1c-3.3 6.4-9.1 8.7-14 5.1-6.1-4.5-8.2-16.2-4.1-24.3 12-23.7 38.8-58.8 92.3-58.8s80.3 35.1 92.3 58.8c4.4 8.1 2.3 19.7-3.9 24.3z m313 0c-4.9 3.6-10.7 1.3-14-5.1-12-23.5-36.3-45.1-74.3-45.1s-62.3 21.6-74.3 45.1c-3.3 6.4-9.1 8.7-14 5.1-6.1-4.5-8.2-16.2-4.1-24.3 12-23.7 38.8-58.8 92.3-58.8s80.3 35.1 92.3 58.8c4.3 8.1 2.3 19.7-3.9 24.3z" p-id="10125" fill="#009a61"></path></svg>